<svg xmlns="http://www.w3.org/2000/svg" width="1000" height="620" viewBox="0 0 1000 620">
<rect width="100%" height="100%" fill="#f4f5f0"/>
<text x="30" y="40" font-family="Arial" font-size="22" font-weight="700">Evaluation Protocol Ranking Bump Chart</text>
<text x="30" y="65" font-family="Arial" font-size="13">Lower rank is better. Lines show how model ranking changes when the judge protocol changes.</text>
<text x="55" y="90.0" font-family="Arial" font-size="12" fill="#555">1</text>
<line x1="120" y1="85.0" x2="920" y2="85.0" stroke="#ddd" stroke-width="1"/>
<text x="55" y="240.0" font-family="Arial" font-size="12" fill="#555">2</text>
<line x1="120" y1="235.0" x2="920" y2="235.0" stroke="#ddd" stroke-width="1"/>
<text x="55" y="390.0" font-family="Arial" font-size="12" fill="#555">3</text>
<line x1="120" y1="385.0" x2="920" y2="385.0" stroke="#ddd" stroke-width="1"/>
<text x="55" y="540.0" font-family="Arial" font-size="12" fill="#555">4</text>
<line x1="120" y1="535.0" x2="920" y2="535.0" stroke="#ddd" stroke-width="1"/>
<text x="120.0" y="585" text-anchor="middle" font-family="Arial" font-size="13">Holistic</text>
<text x="386.7" y="585" text-anchor="middle" font-family="Arial" font-size="13">Argument</text>
<text x="653.3" y="585" text-anchor="middle" font-family="Arial" font-size="13">Evidence</text>
<text x="920.0" y="585" text-anchor="middle" font-family="Arial" font-size="13">Deliberative</text>
<polyline points="120.0,85.0 386.7,85.0 653.3,235.0 920.0,85.0" fill="none" stroke="#355c7d" stroke-width="4" stroke-linejoin="round"/>
<circle cx="120.0" cy="85.0" r="12" fill="#355c7d"/>
<text x="120.0" y="89.0" text-anchor="middle" font-family="Arial" font-size="10" fill="white">1</text>
<circle cx="386.7" cy="85.0" r="12" fill="#355c7d"/>
<text x="386.7" y="89.0" text-anchor="middle" font-family="Arial" font-size="10" fill="white">1</text>
<circle cx="653.3" cy="235.0" r="12" fill="#355c7d"/>
<text x="653.3" y="239.0" text-anchor="middle" font-family="Arial" font-size="10" fill="white">2</text>
<circle cx="920.0" cy="85.0" r="12" fill="#355c7d"/>
<text x="920.0" y="89.0" text-anchor="middle" font-family="Arial" font-size="10" fill="white">1</text>
<text x="938.0" y="89.0" font-family="Arial" font-size="11" fill="#355c7d">academic_cloud:qwen3-30b-a3b-instruct-2507</text>
<polyline points="120.0,235.0 386.7,235.0 653.3,85.0 920.0,235.0" fill="none" stroke="#f28e2b" stroke-width="4" stroke-linejoin="round"/>
<circle cx="120.0" cy="235.0" r="12" fill="#f28e2b"/>
<text x="120.0" y="239.0" text-anchor="middle" font-family="Arial" font-size="10" fill="white">2</text>
<circle cx="386.7" cy="235.0" r="12" fill="#f28e2b"/>
<text x="386.7" y="239.0" text-anchor="middle" font-family="Arial" font-size="10" fill="white">2</text>
<circle cx="653.3" cy="85.0" r="12" fill="#f28e2b"/>
<text x="653.3" y="89.0" text-anchor="middle" font-family="Arial" font-size="10" fill="white">1</text>
<circle cx="920.0" cy="235.0" r="12" fill="#f28e2b"/>
<text x="920.0" y="239.0" text-anchor="middle" font-family="Arial" font-size="10" fill="white">2</text>
<text x="938.0" y="239.0" font-family="Arial" font-size="11" fill="#f28e2b">academic_cloud:glm-4.7</text>
<polyline points="120.0,385.0 386.7,535.0 653.3,535.0 920.0,535.0" fill="none" stroke="#4e4e4e" stroke-width="4" stroke-linejoin="round"/>
<circle cx="120.0" cy="385.0" r="12" fill="#4e4e4e"/>
<text x="120.0" y="389.0" text-anchor="middle" font-family="Arial" font-size="10" fill="white">3</text>
<circle cx="386.7" cy="535.0" r="12" fill="#4e4e4e"/>
<text x="386.7" y="539.0" text-anchor="middle" font-family="Arial" font-size="10" fill="white">4</text>
<circle cx="653.3" cy="535.0" r="12" fill="#4e4e4e"/>
<text x="653.3" y="539.0" text-anchor="middle" font-family="Arial" font-size="10" fill="white">4</text>
<circle cx="920.0" cy="535.0" r="12" fill="#4e4e4e"/>
<text x="920.0" y="539.0" text-anchor="middle" font-family="Arial" font-size="10" fill="white">4</text>
<text x="938.0" y="539.0" font-family="Arial" font-size="11" fill="#4e4e4e">academic_cloud:apertus-70b-instruct-2509</text>
<polyline points="120.0,535.0 386.7,385.0 653.3,385.0 920.0,385.0" fill="none" stroke="#59a14f" stroke-width="4" stroke-linejoin="round"/>
<circle cx="120.0" cy="535.0" r="12" fill="#59a14f"/>
<text x="120.0" y="539.0" text-anchor="middle" font-family="Arial" font-size="10" fill="white">4</text>
<circle cx="386.7" cy="385.0" r="12" fill="#59a14f"/>
<text x="386.7" y="389.0" text-anchor="middle" font-family="Arial" font-size="10" fill="white">3</text>
<circle cx="653.3" cy="385.0" r="12" fill="#59a14f"/>
<text x="653.3" y="389.0" text-anchor="middle" font-family="Arial" font-size="10" fill="white">3</text>
<circle cx="920.0" cy="385.0" r="12" fill="#59a14f"/>
<text x="920.0" y="389.0" text-anchor="middle" font-family="Arial" font-size="10" fill="white">3</text>
<text x="938.0" y="389.0" font-family="Arial" font-size="11" fill="#59a14f">academic_cloud:meta-llama-3.1-8b-instruct</text>
</svg>
